<?xml version="1.0" encoding="UTF-8"?>
<svg width="100px" height="67px" viewBox="0 0 100 67" version="1.1" xmlns="http://www.w3.org/2000/svg" xmlns:xlink="http://www.w3.org/1999/xlink">
    <!-- Generator: Sketch 61.2 (89653) - https://sketch.com -->
    <title>Artboard</title>
    <desc>Created with Sketch.</desc>
    <g id="Artboard" stroke="none" stroke-width="1" fill="none" fill-rule="evenodd">
        <path d="M43.3381073,52.0806086 C43.5758592,52.0806086 43.2852736,51.6301118 43.5230254,51.6831114 C43.7343604,51.7626109 43.9192785,51.9216097 44.0513628,52.0806086 C44.0513628,52.0806086 44.6853677,51.0471161 44.7382014,51.338614 C44.7910351,51.6301118 45.1344544,51.6301118 45.1344544,51.6301118 C45.213705,51.3121141 45.42504,51.0736159 45.7156255,50.9411168 C46.1647123,50.7556182 46.5873822,50.5171199 46.9836353,50.2521219 L47.432722,50.8351176 C47.5912232,50.4376205 47.3534714,49.7486255 47.8289751,49.4571276 C48.3044787,49.1656298 48.1459775,48.5296344 48.1459775,48.5296344 C48.1459775,47.1516444 49.8366571,47.6021411 49.8366571,47.6021411 C50.0744089,46.3036506 49.8366571,44.2366656 49.8366571,44.2366656 C50.1536595,44.3161651 50.6819969,44.3956645 50.6819969,44.3956645 C50.7612475,43.6271701 50.6819969,41.6396845 50.6819969,41.6396845 C50.6819969,41.6396845 51.5273367,41.7191839 53.2708501,40.7916907 C55.0143634,39.8641974 53.5878525,39.8641974 53.5878525,39.8641974 C53.5878525,39.8641974 51.0782499,39.7051986 53.0595151,39.2547019 C55.0407803,38.8042052 57.1012961,37.3997154 57.5767997,37.0287181 C58.0523034,36.6577208 56.7314599,37.1082175 54.908696,37.2672163 C53.085932,37.4262152 55.6747852,36.4192225 55.6747852,36.4192225 C58.3164721,35.3327304 59.3995637,34.2462383 59.7693998,33.8487412 C59.3467299,33.9812403 58.1843877,34.0607397 56.7314599,34.4847366 C54.8822791,35.0147327 55.9653707,34.2462383 55.9653707,34.2462383 C55.9653707,34.2462383 61.5393301,31.4902584 63.6262627,30.3242669 C65.7131954,29.1582753 64.4716025,29.2642746 64.4716025,29.2642746 C64.4716025,29.2642746 62.7016723,29.4232734 62.0148337,29.7942707 C61.3279951,30.165268 60.9581589,30.032769 60.9581589,30.032769 C60.9581589,30.032769 62.569588,28.1777825 66.1622821,26.587794 C69.7549763,24.9978056 70.9701523,24.0438126 70.6795667,24.0438126 C70.3889812,24.0438126 67.3510412,24.8918064 67.3510412,24.8918064 C67.3510412,24.8918064 65.4490267,25.7398002 66.584952,24.6533081 C67.7208774,23.566816 72.9250006,19.9628423 75.9893574,18.4258534 C79.0537142,16.8888646 78.7367118,16.6503664 78.7367118,16.6503664 C78.7367118,16.6503664 76.279943,17.2598619 73.7703404,18.1078557 C71.2607379,18.9558496 72.3174126,18.1078557 72.84575,17.7103586 C73.3740874,17.3128615 79.1329648,13.6293883 80.9557288,12.4103972 C82.7784927,11.1914061 86.3183532,9.78691629 86.3183532,9.78691629 C86.3183532,9.78691629 89.7525461,8.3294269 88.9864569,8.40892632 C88.2203677,8.48842574 84.3106711,9.86641572 82.4879072,10.3169124 C80.6651432,10.7674092 82.725659,9.30991976 84.4691723,8.85942304 C86.2126857,8.40892632 87.9826159,7.16343538 87.9826159,7.16343538 C87.9826159,7.16343538 90.6507197,5.46744772 92.7904861,4.69895331 C94.9302525,3.93045891 98.9720334,1.94297337 98.9720334,1.94297337 C101.560887,0.803481659 98.443696,1.49247665 98.443696,1.49247665 C97.5191056,1.57197607 94.3226645,3.02946546 92.6319849,3.40046276 C90.9413052,3.77146006 91.7073945,3.1619645 92.8697367,2.87046662 C94.0320789,2.57896874 95.4850067,1.94297337 97.6776068,0.723982237 C99.870207,-0.495008893 97.1492695,0.193986094 97.1492695,0.193986094 C93.6358259,1.35997761 82.0124035,6.71293866 81.0085625,7.48143307 C80.0047215,8.24992748 76.0421911,10.6349101 76.0421911,10.6349101 C66.4792846,15.0868777 58.6863082,22.6923224 58.6863082,22.6923224 C55.1728646,25.3158033 49.8102402,30.9072626 49.8102402,30.9072626 L47.1421365,32.6032503 C43.0211049,35.1472318 40.4058349,33.8222414 39.3491601,33.053747 L33.3789477,28.7607782 C31.0014295,26.6937933 26.3520606,23.4608168 26.3520606,23.4608168 C24.2122942,21.5528307 17.1061564,19.0088492 17.1061564,19.0088492 C17.1061564,19.0088492 15.4947274,18.0018565 16.0230648,16.2528692 C16.5514022,14.503882 16.2608166,11.8009016 16.2608166,10.793909 C16.2608166,9.78691629 16.8684046,9.62791745 16.8684046,9.62791745 C18.8496698,8.93892246 18.1628312,7.40193365 18.1628312,7.40193365 C17.2382408,7.93192979 15.573978,7.40193365 13.4342116,5.33494869 C12.0341176,3.9039591 10.132103,3.08246508 8.15083785,3.02946546 C7.09416309,2.94996604 7.30549804,3.10896488 6.09032206,3.34746315 C4.87514609,3.58596141 4.55814366,4.96395139 4.2675581,5.12295023 C3.79205446,5.44094792 3.34296769,5.83844502 2.97313152,6.26244194 C2.7353797,6.5009402 2.44479414,6.68643885 2.12779172,6.79243808 C0.754114529,6.95143693 0.0672759354,8.40892632 0.0672759354,8.40892632 C-0.276143361,9.15092092 0.806948267,8.46192593 0.806948267,8.46192593 C3.15804961,8.30292709 4.29397497,10.5819105 4.29397497,10.5819105 C4.42605932,13.8413868 9.128262,14.2388839 10.1585199,9.76041649 C10.1585199,9.76041649 10.739691,7.64043191 13.962549,7.87893018 C13.962549,7.87893018 11.3736959,7.82593056 10.6076067,10.104914 C9.84151746,12.3838974 9.07542826,14.1593845 6.909245,14.3448831 C7.12057995,17.2598619 6.64507631,18.4258534 6.24882328,19.5123455 C9.31318008,18.4523532 13.8040478,18.8763502 13.8040478,18.8763502 C10.8453585,18.7968507 5.98465459,20.4928384 5.82615337,20.8638357 C4.63739427,22.7188222 4.00338941,24.8653066 4.05622315,27.0912904 C4.10905689,29.343774 4.76947862,31.543258 5.95823772,33.4777439 C7.38474864,36.2867235 8.99617765,37.2142167 8.99617765,37.2142167 C10.7661079,38.3007088 10.951026,38.9367042 11.1095272,39.1752025 C12.6681224,41.2686872 13.8568815,43.1501735 14.2531346,43.494671 C14.6493876,43.8391685 16.5514022,45.6146556 17.2910745,46.6746479 C18.0307468,47.7346402 22.6272821,50.8881172 22.6272821,50.8881172 C22.6272821,50.8881172 24.8198822,51.7626109 25.3218027,53.9355951 C25.8237232,56.1085792 24.1858773,60.6665461 23.9481255,61.3555411 C23.7103737,62.0445361 22.5744483,63.0780285 22.0989447,63.2105276 C21.623441,63.3430266 19.8535108,64.0585214 19.008171,64.0585214 C18.5855011,64.0320216 18.1628312,64.0850212 17.7401613,64.2440201 L16.9476552,64.9860147 C17.5288263,65.0655141 18.0835806,65.0920139 18.6647517,65.0920139 C19.1930891,65.0655141 19.7214265,64.933015 20.223347,64.6945168 L21.2007711,64.7475164 C21.2007711,64.7475164 19.9855952,65.7280093 19.2459228,65.7280093 C18.5062505,65.7280093 17.9250794,67 17.9250794,67 C17.9250794,67 19.008171,66.6555025 19.2459228,66.6025029 C19.7214265,66.5760031 20.1969301,66.6025029 20.6724337,66.6555025 C21.0686868,66.3640046 21.5441904,66.3640046 22.6272821,66.2050058 C23.2877038,66.0990066 23.9217086,65.8075087 24.3972123,65.3305121 C24.3972123,65.3305121 26.2463931,63.3695264 26.4048943,63.5550251 C26.5633955,63.7405237 27.3823185,63.7935233 27.672904,63.7935233 C27.9634896,63.7935233 27.9634896,63.5550251 27.9634896,63.5550251 L30.3674247,63.5550251 L30.4202584,63.157528 L31.4505163,63.1045283 C32.4807742,63.0515287 33.114779,63.1045283 32.929861,62.7070312 C32.7449429,62.3095341 32.1373549,62.2565345 32.1373549,62.2565345 L31.0806801,62.0975357 C30.7900946,61.5675395 29.4692511,61.8060378 28.676745,61.5145399 C27.884239,61.223042 27.8049884,60.4280478 28.3333258,58.9705584 C28.8616631,57.513069 29.7070029,55.2870852 29.7070029,55.2870852 C30.0504222,55.5785831 31.3712657,55.8170814 31.2655982,55.6845823 C31.1599307,55.5520833 31.2127645,54.9425877 31.2127645,54.9425877 C31.5561838,55.2340856 31.4505163,55.2340856 33.8544514,55.1015866 C36.2583864,54.9955873 36.4961383,55.6315827 36.4961383,55.3930845 C36.4961383,55.1545862 36.152719,54.7570891 36.2583864,54.5980902 C36.3640539,54.4390914 37.2886443,55.048587 37.2886443,55.048587 C37.2886443,55.048587 37.1829769,54.5185908 37.5263962,54.5185908 M8.91692705,6.60693943 C8.54709088,6.63343924 7.88666916,6.1034431 7.88666916,6.1034431 C7.88666916,6.1034431 8.75842583,4.88445196 9.57734877,5.57344695 C10.3962717,6.26244194 9.26034634,6.58043962 8.91692705,6.60693943 M27.884239,54.9690875 L27.7257378,57.1155719 C27.7257378,57.1155719 26.8011473,59.8715519 26.5898124,60.958044 C26.3784774,62.0445361 25.5859714,61.8855372 25.3746364,61.4085407 C25.1633015,60.9315442 25.665222,58.7320602 26.1407256,58.0430652 C26.6162293,57.3540702 27.3030679,55.048587 27.3030679,55.048587 C28.1748245,53.5910976 27.884239,54.9690875 27.884239,54.9690875 Z M26.1407256,47.2841435 C2.52404475,37.0287181 11.9812838,25.2628037 11.9812838,25.2628037 L13.1172092,26.4022954 C8.28292219,37.7707127 20.7781012,44.872661 26.1407256,47.2841435 C26.8539811,47.6021411 27.6200703,47.9201388 28.4125764,48.2381365 C29.5749186,48.715133 27.4879859,47.9201388 26.1407256,47.2841435 L26.1407256,47.2841435 Z" id="Shape" fill="#000000" fill-rule="nonzero"></path>
    </g>
</svg>