<?xml version="1.0" encoding="UTF-8"?>
<svg width="149px" height="40px" viewBox="0 0 149 40" version="1.1" xmlns="http://www.w3.org/2000/svg" xmlns:xlink="http://www.w3.org/1999/xlink">
    <!-- Generator: Sketch 61.2 (89653) - https://sketch.com -->
    <title>Artboard</title>
    <desc>Created with Sketch.</desc>
    <g id="Artboard" stroke="none" stroke-width="1" fill="none" fill-rule="evenodd">
        <path d="M0,0 C0,0 70.2889044,0 149,0 L149,33.2525952 L146.677832,27.0934256 L144.736916,30.3114187 L146.296581,31.0380623 L144.182368,32.8027682 L142.068155,27.9584775 L143.419865,28.2352941 L140.716446,22.8373702 L137.042568,27.6816609 L138.775529,27.9584775 L135.309607,34.8442907 L137.423819,34.982699 C137.423819,34.982699 136.453361,37.7508651 135.690858,37.9238754 C134.928355,38.0968858 131.843685,31.7647059 131.843685,31.7647059 L134.547104,31.1764706 L130.28402,23.9100346 L131.843685,23.183391 L127.407304,13.9792388 L123.178879,23.0449827 L125.501047,23.7716263 L120.683415,30.3460208 L122.797627,32.2491349 L120.856711,38.0968858 L118.915794,37.9584775 L118.534543,35.467128 L117.564085,33.8408304 L119.886253,32.2145329 L116.039079,25.0519031 L117.77204,24.7404844 L114.098162,19.6193772 L111.221447,24.4290657 L112.573157,25.2941176 L111.602698,28.8235294 L108.725983,25.017301 L109.696441,23.3910035 L106.993022,18.4083045 L104.116306,23.6678201 L105.26006,25.1211073 L101.967434,31.5570934 L103.700395,32.8719723 L101.378227,39.3079585 L98.0856013,35.2249135 L101.378227,33.183391 L95.7980926,23.8062284 L97.3577576,22.3529412 L92.3321703,16.1937716 L86.9253315,22.3529412 L88.4503373,23.8062284 L84.2219121,31.9723183 L83.2514538,29.0311419 L85.1923703,26.5397924 L79.2309839,18.3391003 L81.1719004,16.8858131 L76.5275645,5.19031142 L71.1207258,17.1626298 L72.8536869,18.9273356 L67.4468481,27.5778547 L70.3235636,29.2041522 L67.4468481,35.1903114 L67.2388928,37.3702422 L65.8871831,36.9204152 L64.5354734,34.2906574 L66.649686,32.6643599 L61.832054,25.7785467 L63.0104676,24.6020761 L59.3365899,20.0692042 L55.2814608,24.7404844 L57.014422,25.916955 L53.1672482,32.3529412 L54.692254,33.8062284 L52.7513375,39.2387543 L48.1416609,30.1730104 L50.6371249,28.2698962 L45.2302861,19.6193772 L46.7552919,18.16609 L41.8336823,8.09688581 L36.8080949,18.200692 L38.5410561,19.9653979 L33.5501279,28.16609 L35.0751338,30.2076125 L32.3717144,37.0934256 L31.6092114,33.4256055 L30.4307979,32.5259516 L31.5745522,31.4878893 L29.0790882,25.3287197 L30.8120493,24.0138408 L26.9995348,19.9653979 L23.7415678,24.4982699 L25.474529,25.9515571 L22.0086067,31.6608997 L23.3603164,32.3875433 L22.7711096,38.2352941 L20.4489416,38.5121107 L20.656897,36.0207612 L21.6273552,35.432526 L21.4193999,32.2145329 L19.0972319,29.4463668 L19.3051873,27.6816609 L20.4489416,27.5432526 L16.9830193,18.3391003 L14.1063038,27.4048443 L15.4580135,29.0311419 L12.3733426,35.6055363 L13.7250523,36.1937716 L13.517097,39.4117647 L11.7841358,40 L11.7841358,37.3702422 L10.25913,35.7439446 L10.25913,34.567474 L11.6108397,33.2525952 L8.35287276,26.9550173 L9.87787858,26.366782 L5.64945336,20.9688581 L1.42102815,26.6782007 L3.36194464,26.6782007 L0,31.799308 L0,0 Z" id="Path-Copy" fill="#EA2027" fill-rule="nonzero"></path>
    </g>
</svg>